@startuml

class Character {
    - character : char
    - characterProperty : CharacterProperties
    + Character(char character, CharacterProperties characterProperty)
    + setCharacter(char character) : void
    + setCharacterProperty(characterProperty : CharacterProperties) : void
    + getCharacter() : char
    + getFont() : String
    + getColor() : String
    + getSize() : int
}

class CharacterProperties {
    - font : String
    - color : String
    - size : int
    + CharacterProperties(font : String, color : String, size : int)
    + getFont() : String
    + getColor() : String
    + getSize() : int
}

class CharacterPropertiesFactory {
    - flyweights : Map<String, CharacterProperties>
    + setAndRetrieveFlyweightCharacterProperties(font : String, color : String, size : int) : CharacterProperties
    + sizeOfMap() : int
}

class Document {
    - characters : List<Character>
    - propertiesFactory : CharacterPropertiesFactory
    + addCharacter(c : char, font : String, color : String, size : int) : void
    + editCharacterProperties(index : int, font : String, color : String, size : int) : void
    + saveToFile(filename : String) : void
    + loadFromFile(filename : String) : void
}

class Driver {
    + main(args : String[]) : void
}


Document "1" *-- "0..*" Character : characters

Document "1" *-- "1" CharacterPropertiesFactory : propertiesFactory

CharacterPropertiesFactory "1" o-- "0..*" CharacterProperties : flyweights

Character "1" --> "1" CharacterProperties : characterProperty

Driver ..> Document

Document ..> CharacterPropertiesFactory
Document ..> Character

@enduml
